<svg width="24" height="23" viewBox="0 0 24 23" fill="none" xmlns="http://www.w3.org/2000/svg">
<path d="M16.6497 0.000412556C15.6834 0.0103526 14.6923 0.199053 13.7226 0.586113L13.6786 0.604793L13.6345 0.627473C13.0198 0.940513 12.4596 1.33211 11.9615 1.79619C9.28105 -0.522147 5.01363 -0.690408 2.09411 1.94161L2.06475 1.96829L2.03807 1.99631C-0.523047 4.67143 -0.463067 8.79125 1.07213 12.0465L1.08547 12.0719L1.09881 12.0985C2.90689 15.4467 6.28313 18.2916 9.35989 20.6305L9.36789 20.6371L9.37455 20.6425C9.57249 20.7876 9.91285 21.0876 10.3058 21.3829C10.6987 21.6782 11.1426 22.0019 11.792 22.126L11.9375 22.154L12.0842 22.142C12.7659 22.0832 13.0333 21.8316 13.4811 21.5497C13.9289 21.2678 14.4246 20.91 14.934 20.5184C15.938 19.7465 16.9769 18.8568 17.661 18.2223C17.6698 18.2141 17.6843 18.2024 17.693 18.1943L17.697 18.1903C19.1381 16.9606 20.5655 15.5431 21.7755 13.8756L21.7768 13.8743C21.7791 13.8713 21.7812 13.8681 21.7835 13.865C23.7026 11.2811 24.6336 7.79907 23.5233 4.36847L23.5032 4.30709L23.4766 4.24971C22.2299 1.55463 19.5487 -0.0293674 16.6497 0.000412556ZM16.6844 2.11105C18.7731 2.06301 20.6039 3.18141 21.5127 5.09421C22.3525 7.77215 21.6266 10.5006 20.0625 12.6015L20.0585 12.6068L20.0545 12.6122C18.9649 14.1158 17.6453 15.432 16.2775 16.596L16.2602 16.612L16.2428 16.628C15.6269 17.2013 14.5843 18.0945 13.6319 18.8267C13.1556 19.1928 12.6991 19.52 12.3444 19.7433C12.2111 19.8272 12.0843 19.8844 11.9802 19.9287C11.8708 19.8689 11.732 19.7848 11.588 19.6766C11.298 19.4586 10.9892 19.1804 10.6527 18.9321C10.6475 18.9281 10.6419 18.9241 10.6367 18.9201C7.65081 16.649 4.50569 13.8914 2.99331 11.1113C1.76549 8.48819 1.81907 5.34861 3.55365 3.50389C5.91217 1.40685 9.41611 1.86275 11.1637 4.01487L12.0149 5.06219L12.838 3.99353C13.3117 3.37907 13.8769 2.90933 14.5631 2.55265C15.2824 2.27167 15.997 2.12685 16.6844 2.11105Z" fill="#999999"/>
</svg>
