<svg width="23" height="24" viewBox="0 0 23 24" fill="none" xmlns="http://www.w3.org/2000/svg">
<path d="M12.8064 0.614887C12.3658 0.219002 11.7944 0 11.202 0C10.6097 0 10.0382 0.219002 9.59762 0.614887L0.795401 8.52409C0.545134 8.74915 0.34499 9.02432 0.20796 9.33174C0.0709301 9.63916 7.7072e-05 9.97196 0 10.3085V21.5994C0 22.2361 0.25292 22.8467 0.703121 23.2969C1.15332 23.7471 1.76393 24 2.40061 24H5.60142C6.2381 24 6.8487 23.7471 7.2989 23.2969C7.7491 22.8467 8.00202 22.2361 8.00202 21.5994V15.1978C8.00202 14.9855 8.08633 14.782 8.2364 14.6319C8.38646 14.4819 8.59 14.3976 8.80222 14.3976H13.6034C13.8157 14.3976 14.0192 14.4819 14.1693 14.6319C14.3193 14.782 14.4036 14.9855 14.4036 15.1978V21.5994C14.4036 22.2361 14.6566 22.8467 15.1068 23.2969C15.557 23.7471 16.1676 24 16.8042 24H20.0051C20.6417 24 21.2523 23.7471 21.7025 23.2969C22.1527 22.8467 22.4057 22.2361 22.4057 21.5994V10.3085C22.4056 9.97196 22.3347 9.63916 22.1977 9.33174C22.0607 9.02432 21.8605 8.74915 21.6103 8.52409L12.808 0.614887H12.8064Z" fill="#659E27"/>
</svg>
