<svg width="20" height="24" viewBox="0 0 20 24" fill="none" xmlns="http://www.w3.org/2000/svg">
<path d="M0.905763 9.33619L0.905763 9.33594C0.904887 7.58851 1.42242 5.8801 2.39286 4.42691C3.36329 2.97373 4.74302 1.84109 6.35742 1.17234C7.97181 0.503592 9.74831 0.328795 11.4621 0.670072C13.1759 1.01135 14.7499 1.85336 15.9849 3.08954L15.9859 3.09049C16.8079 3.90881 17.4594 4.88204 17.9027 5.95384C18.3461 7.02564 18.5725 8.17473 18.5688 9.3346V9.33619C18.5688 11.0323 17.9727 12.8024 17.0928 14.4831C16.2151 16.1597 15.0722 17.7148 14.0197 18.9719C12.708 20.5374 11.2762 21.9977 9.73728 23.3397C8.19837 21.9977 6.76653 20.5374 5.45489 18.9719C4.40232 17.7148 3.25948 16.1597 2.38177 14.4831C1.5019 12.8024 0.905763 11.0323 0.905763 9.33619ZM9.73728 4.83697C8.54401 4.83697 7.39961 5.311 6.55585 6.15476C5.71208 6.99853 5.23806 8.14293 5.23806 9.33619C5.23806 10.5295 5.71208 11.6739 6.55585 12.5176C7.39961 13.3614 8.54401 13.8354 9.73728 13.8354C10.9305 13.8354 12.0749 13.3614 12.9187 12.5176C13.7625 11.6739 14.2365 10.5295 14.2365 9.33619C14.2365 8.14293 13.7625 6.99853 12.9187 6.15476C12.0749 5.311 10.9305 4.83697 9.73728 4.83697Z" stroke="#999999"/>
</svg>
