<svg width="21" height="24" viewBox="0 0 21 24" fill="none" xmlns="http://www.w3.org/2000/svg">
<path d="M12.6284 22.6716L12.6171 22.6794L12.6062 22.6879C12.0716 23.1046 11.4447 23.3686 10.7894 23.4643C10.4219 23.5116 10.0652 23.5121 9.71785 23.4645C9.06079 23.3691 8.43371 23.105 7.90037 22.6873L7.88852 22.6781L7.87613 22.6695C7.51562 22.4207 7.28252 22.0483 7.2574 21.6611C7.26032 21.545 7.30667 21.4636 7.40784 21.384C7.52817 21.2893 7.71303 21.2129 7.93247 21.1618C8.03585 21.141 8.32827 21.1178 8.77017 21.1018C9.19897 21.0862 9.72459 21.0783 10.2523 21.0783C10.78 21.0783 11.3056 21.0862 11.7344 21.1018C12.1763 21.1178 12.4687 21.141 12.5721 21.1618C12.7915 21.2129 12.9764 21.2893 13.0967 21.384C13.1979 21.4636 13.2442 21.545 13.2471 21.6611C13.222 22.0484 12.9888 22.4212 12.6284 22.6716ZM16.4878 3.45483L16.4889 3.45628C17.3976 4.62637 17.8173 5.78023 17.8173 7.64436V8.1556C17.8173 8.95476 17.9232 9.61785 18.16 10.2275C18.3964 10.8359 18.752 11.3622 19.2125 11.8999L19.2124 11.9L19.2171 11.9052C19.7681 12.5308 19.9688 13.3575 19.9688 14.3472C19.9688 15.2802 19.6648 16.1561 19.0605 16.8677C18.2409 17.7423 17.0848 18.3011 15.9123 18.3981L15.9111 18.3982C14.0284 18.5587 12.1591 18.6925 10.2694 18.6925C8.37041 18.6925 6.50439 18.6121 4.64203 18.3996L4.63428 18.3987L4.62651 18.3981C3.45271 18.3011 2.2967 17.7422 1.4785 16.8678C0.873848 16.1559 0.568848 15.2799 0.568848 14.3472C0.568848 13.3582 0.770527 12.531 1.32069 11.9051C1.79794 11.3646 2.15567 10.8362 2.38948 10.2251C2.6233 9.61407 2.72155 8.95096 2.72155 8.1556V7.64436C2.72155 5.73555 3.18875 4.52762 4.14978 3.32895C5.59215 1.56643 7.91698 0.5 10.2158 0.5H10.3231C12.674 0.5 15.0736 1.62005 16.4878 3.45483Z" stroke="#999999"/>
</svg>
