<svg width="24" height="24" viewBox="0 0 24 24" fill="none" xmlns="http://www.w3.org/2000/svg">
<path d="M4.66667 0C3.42899 0 2.24201 0.491666 1.36684 1.36684C0.491666 2.24201 0 3.42899 0 4.66667V7.152C0 7.50562 0.140476 7.84476 0.390524 8.09481C0.640573 8.34486 0.979711 8.48533 1.33333 8.48533C1.68696 8.48533 2.02609 8.34486 2.27614 8.09481C2.52619 7.84476 2.66667 7.50562 2.66667 7.152V4.66667C2.66667 4.13623 2.87738 3.62753 3.25245 3.25245C3.62753 2.87738 4.13623 2.66667 4.66667 2.66667H7.152C7.50562 2.66667 7.84476 2.52619 8.09481 2.27614C8.34486 2.02609 8.48533 1.68696 8.48533 1.33333C8.48533 0.979711 8.34486 0.640573 8.09481 0.390524C7.84476 0.140476 7.50562 0 7.152 0H4.66667ZM16.848 0C16.4944 0 16.1552 0.140476 15.9052 0.390524C15.6551 0.640573 15.5147 0.979711 15.5147 1.33333C15.5147 1.68696 15.6551 2.02609 15.9052 2.27614C16.1552 2.52619 16.4944 2.66667 16.848 2.66667H19.3333C19.8638 2.66667 20.3725 2.87738 20.7475 3.25245C21.1226 3.62753 21.3333 4.13623 21.3333 4.66667V7.152C21.3333 7.50562 21.4738 7.84476 21.7239 8.09481C21.9739 8.34486 22.313 8.48533 22.6667 8.48533C23.0203 8.48533 23.3594 8.34486 23.6095 8.09481C23.8595 7.84476 24 7.50562 24 7.152V4.66667C24 3.42899 23.5083 2.24201 22.6332 1.36684C21.758 0.491666 20.571 0 19.3333 0H16.848ZM2.66667 16.848C2.66667 16.4944 2.52619 16.1552 2.27614 15.9052C2.02609 15.6551 1.68696 15.5147 1.33333 15.5147C0.979711 15.5147 0.640573 15.6551 0.390524 15.9052C0.140476 16.1552 0 16.4944 0 16.848V19.3333C0 20.571 0.491666 21.758 1.36684 22.6332C2.24201 23.5083 3.42899 24 4.66667 24H7.152C7.50562 24 7.84476 23.8595 8.09481 23.6095C8.34486 23.3594 8.48533 23.0203 8.48533 22.6667C8.48533 22.313 8.34486 21.9739 8.09481 21.7239C7.84476 21.4738 7.50562 21.3333 7.152 21.3333H4.66667C4.13623 21.3333 3.62753 21.1226 3.25245 20.7475C2.87738 20.3725 2.66667 19.8638 2.66667 19.3333V16.848ZM24 16.848C24 16.4944 23.8595 16.1552 23.6095 15.9052C23.3594 15.6551 23.0203 15.5147 22.6667 15.5147C22.313 15.5147 21.9739 15.6551 21.7239 15.9052C21.4738 16.1552 21.3333 16.4944 21.3333 16.848V19.3333C21.3333 19.8638 21.1226 20.3725 20.7475 20.7475C20.3725 21.1226 19.8638 21.3333 19.3333 21.3333H16.848C16.4944 21.3333 16.1552 21.4738 15.9052 21.7239C15.6551 21.9739 15.5147 22.313 15.5147 22.6667C15.5147 23.0203 15.6551 23.3594 15.9052 23.6095C16.1552 23.8595 16.4944 24 16.848 24H19.3333C20.571 24 21.758 23.5083 22.6332 22.6332C23.5083 21.758 24 20.571 24 19.3333V16.848ZM6.66667 10.6667C6.31305 10.6667 5.97391 10.8071 5.72386 11.0572C5.47381 11.3072 5.33333 11.6464 5.33333 12C5.33333 12.3536 5.47381 12.6928 5.72386 12.9428C5.97391 13.1929 6.31305 13.3333 6.66667 13.3333H17.3333C17.687 13.3333 18.0261 13.1929 18.2761 12.9428C18.5262 12.6928 18.6667 12.3536 18.6667 12C18.6667 11.6464 18.5262 11.3072 18.2761 11.0572C18.0261 10.8071 17.687 10.6667 17.3333 10.6667H6.66667Z" fill="black"/>
</svg>
